<?xml version="1.0" standalone="no"?>
<!DOCTYPE svg PUBLIC "-//W3C//DTD SVG 20010904//EN"
 "http://www.w3.org/TR/2001/REC-SVG-20010904/DTD/svg10.dtd">
<svg version="1.0" xmlns="http://www.w3.org/2000/svg"
 width="200.000000pt" height="200.000000pt" viewBox="0 0 200.000000 200.000000"
 preserveAspectRatio="xMidYMid meet">

<g transform="translate(0.000000,200.000000) scale(0.100000,-0.100000)"
fill="#000000" stroke="none">
<path d="M0 1000 l0 -1000 1000 0 1000 0 0 1000 0 1000 -1000 0 -1000 0 0
-1000z m1320 165 c0 -78 -3 -95 -15 -95 -12 0 -15 17 -15 95 0 78 3 95 15 95
12 0 15 -17 15 -95z m-645 60 c19 -18 25 -35 25 -65 0 -65 -32 -90 -115 -90
l-65 0 0 90 0 90 65 0 c57 0 69 -3 90 -25z m395 -53 c0 -47 -5 -83 -12 -90
-18 -18 -148 -16 -148 3 0 11 16 15 68 17 l67 3 3 73 c4 97 22 92 22 -6z
m-220 19 c0 -6 -19 -11 -42 -13 l-43 -3 -3 -52 c-2 -38 -7 -53 -18 -53 -18 0
-20 100 -2 118 14 14 108 16 108 3z m398 -3 c7 -7 12 -31 12 -55 0 -49 -17
-63 -75 -63 -58 0 -75 14 -75 63 0 24 5 48 12 55 16 16 110 16 126 0z m190
-55 c2 -39 -1 -63 -8 -63 -5 0 -10 18 -10 39 0 59 -8 71 -46 71 -19 0 -34 5
-34 11 0 6 19 9 48 7 l47 -3 3 -62z m174 50 c24 -21 26 -113 3 -113 -11 0 -15
11 -15 43 0 52 -13 67 -57 67 l-33 0 0 -55 c0 -42 -3 -55 -15 -55 -12 0 -15
14 -15 65 l0 65 57 0 c38 0 62 -5 75 -17z m-728 -104 c-3 -5 -10 -7 -15 -3 -5
3 -7 10 -3 15 3 5 10 7 15 3 5 -3 7 -10 3 -15z m-484 -127 c40 -29 65 -88 54
-131 l-9 -36 -69 -1 c-60 -1 -73 2 -93 22 -28 28 -29 44 -2 78 17 21 29 26 65
26 l44 0 0 -51 c0 -43 3 -50 18 -47 27 6 21 74 -10 104 -79 79 -207 -8 -164
-111 22 -51 74 -73 128 -52 24 10 40 12 44 5 11 -17 -13 -31 -64 -36 -87 -8
-142 41 -142 126 0 103 117 164 200 104z m786 -36 c40 -46 26 -124 -26 -146
-15 -6 -51 -10 -81 -8 l-54 3 -3 79 c-4 110 -5 109 74 104 58 -4 70 -8 90 -32z
m192 -28 c7 -7 12 -21 12 -33 0 -31 -19 -45 -62 -45 -27 0 -38 4 -38 15 0 10
11 15 35 15 24 0 35 5 35 15 0 11 -12 15 -45 15 l-45 0 0 -40 c0 -39 1 -40 35
-40 24 0 35 -5 35 -15 0 -18 -51 -21 -81 -5 -15 8 -19 21 -19 58 0 27 5 53 12
60 16 16 110 16 126 0z m176 -4 c35 -34 6 -74 -55 -74 -28 0 -39 4 -39 15 0
11 11 15 40 15 30 0 40 4 40 16 0 12 -10 14 -47 12 -48 -3 -48 -3 -48 -38 0
-33 2 -35 38 -38 52 -4 51 -32 -1 -32 -50 0 -62 14 -62 70 0 25 5 51 12 58 18
18 103 15 122 -4z"/>
<path d="M550 1160 l0 -60 48 0 c57 0 72 12 72 60 0 48 -15 60 -72 60 l-48 0
0 -60z"/>
<path d="M1147 1174 c-4 -4 -7 -22 -7 -41 0 -33 1 -33 46 -33 l45 0 -3 38 c-3
35 -5 37 -38 40 -20 2 -39 0 -43 -4z"/>
<path d="M302 868 c-26 -26 1 -65 38 -53 14 4 20 15 20 36 0 24 -4 29 -23 29
-13 0 -28 -5 -35 -12z"/>
<path d="M1050 855 l0 -65 49 0 c59 0 81 18 81 65 0 43 -29 65 -87 65 l-43 0
0 -65z"/>
</g>
</svg>
